<svg xmlns="http://www.w3.org/2000/svg" width="20" height="20" viewBox="0 0 20 20">
    <g fill="none" fill-rule="evenodd" opacity=".671">
        <g fill="#222" fill-rule="nonzero" stroke="#222" stroke-width=".5">
            <g>
                <path d="M581.747 35.483l-3.337-3.313c2.69-3.356 2.29-8.23-.912-11.102-3.202-2.871-8.087-2.737-11.127.305-3.04 3.042-3.173 7.931-.304 11.135 2.869 3.204 7.74 3.605 11.093.913l3.31 3.313c.169.17.399.266.639.266s.47-.096.638-.266c.337-.35.337-.903 0-1.251zm-9.633-2.062c-3.477 0-6.296-2.82-6.296-6.3s2.819-6.302 6.296-6.302c3.477 0 6.296 2.821 6.296 6.301 0 1.671-.663 3.274-1.844 4.456-1.18 1.181-2.782 1.845-4.452 1.845z" transform="translate(-983 -782) translate(420 764)"/>
            </g>
        </g>
    </g>
</svg>
