<svg xmlns="http://www.w3.org/2000/svg" width="61" height="61" viewBox="0 0 61 61">
    <g fill="none" fill-rule="evenodd">
        <g fill-rule="nonzero">
            <g>
                <g>
                    <g>
                        <path fill="#FFF" d="M30.5 0C17.554 0 6.018 8.174 1.726 20.389c-4.291 12.214-.404 25.808 9.696 33.907 10.1 8.099 24.213 8.938 35.202 2.093 10.989-6.845 16.46-19.882 13.645-32.52C57.145 9.933 44.782.02 30.499 0z" transform="translate(-943 -302) translate(110 90) translate(614 29) translate(219 183)"/>
                        <g>
                            <path fill="#FFF" d="M21.465 0c-9.111 0-17.23 5.753-20.25 14.349-3.02 8.596-.285 18.163 6.823 23.863 7.109 5.7 17.04 6.29 24.775 1.473 7.733-4.817 11.583-13.993 9.602-22.886C40.217 6.99 31.516.014 21.465 0z" transform="translate(-943 -302) translate(110 90) translate(614 29) translate(219 183) translate(9 9)"/>
                            <path fill="#030303" d="M27.723 21.417c-.438.54-1.109.845-1.811.824h-2.234v6.055c-.001.16-.032.317-.09.466-.377.797-1.212 1.287-2.106 1.234-.88.037-1.698-.45-2.072-1.234-.055-.15-.084-.307-.086-.466v-6.055h-2.233c-.702.023-1.373-.281-1.812-.82-.372-.48-.372-1.145 0-1.625l4.415-5.975c.438-.537 1.107-.84 1.807-.82.7-.019 1.37.282 1.812.815l4.405 5.966c.374.483.376 1.15.005 1.635z" transform="translate(-943 -302) translate(110 90) translate(614 29) translate(219 183) translate(9 9) rotate(90 21.5 21.5)"/>
                        </g>
                    </g>
                </g>
            </g>
        </g>
    </g>
</svg>
